<?xml version="1.0" standalone="no"?>
<!DOCTYPE svg PUBLIC "-//W3C//DTD SVG 20010904//EN" "http://www.w3.org/TR/2001/REC-SVG-20010904/DTD/svg10.dtd">
<svg
  version="1.0"
  xmlns="http://www.w3.org/2000/svg"
  width="766.000000pt"
  height="1230.000000pt"
  viewBox="0 0 766.000000 1230.000000"
  preserveAspectRatio="xMidYMid meet"
>
  <circle cx="50%" cy="33%" r="33%" fill="#f3a710" />
  <g transform="translate(0.000000,1230.000000) scale(0.100000,-0.100000)" fill="#000000" stroke="none">
    <path
      d="M3675 12039 c-984 -47 -1913 -493 -2555 -1227 -220 -250 -369 -472
-519 -773 -134 -267 -203 -452 -276 -739 -83 -324 -109 -567 -102 -949 4 -238
9 -314 31 -452 58 -383 172 -744 337 -1074 191 -381 394 -662 688 -955 237
-236 452 -403 732 -569 74 -44 144 -88 157 -98 16 -13 101 -228 311 -788 159
-423 382 -1011 496 -1305 283 -733 843 -2130 885 -2213 11 -21 20 -49 20 -63
0 -71 37 -143 60 -117 8 8 263 777 318 958 17 55 106 311 197 570 91 259 233
659 315 890 82 231 239 674 350 985 111 311 242 681 292 823 l92 258 45 26
c349 198 612 395 870 653 423 421 738 955 910 1541 134 459 173 980 111 1469
-127 993 -670 1894 -1500 2487 -445 318 -1031 553 -1565 628 -213 30 -499 44
-700 34z m510 -878 c141 -24 274 -57 400 -101 109 -38 362 -161 465 -226 525
-334 917 -835 1158 -1484 47 -124 81 -243 97 -330 l6 -35 -22 35 c-187 296
-310 452 -518 660 -248 247 -476 412 -766 555 -162 80 -331 149 -396 162 -29
5 -30 4 -27 -22 3 -28 55 -79 233 -233 l50 -43 -133 6 c-72 4 -140 8 -150 9
-42 3 -22 -51 121 -324 80 -151 143 -276 142 -278 -2 -3 -415 211 -453 234
-21 14 -25 12 -62 -18 -45 -37 -44 -28 -29 -207 6 -73 8 -135 6 -137 -3 -4
-127 133 -174 193 -11 14 -19 14 -78 -2 -36 -10 -69 -23 -73 -29 -5 -6 -39
-111 -77 -233 -38 -122 -71 -221 -73 -219 -2 2 -34 104 -73 227 -38 122 -72
225 -74 228 -7 6 -116 41 -131 41 -7 0 -52 -47 -100 -104 -71 -84 -90 -101
-92 -84 -2 11 1 80 7 152 l11 131 -38 38 -39 39 -238 -126 c-132 -69 -241
-124 -242 -122 -2 2 62 127 142 279 138 263 159 311 134 319 -6 2 -58 0 -117
-5 -197 -14 -195 -20 -39 116 124 108 162 155 142 175 -15 16 -257 -78 -450
-175 -431 -216 -851 -595 -1154 -1043 -43 -63 -86 -130 -95 -148 -57 -111 1
131 84 352 118 315 287 612 489 863 96 119 285 311 395 399 368 297 809 485
1251 533 139 15 439 6 580 -18z m-1875 -2591 l0 -60 -180 0 c-120 0 -180 -4
-180 -11 0 -5 73 -173 161 -372 247 -554 359 -810 359 -819 0 -5 -41 -7 -92
-6 l-92 3 -86 190 -86 190 -287 0 -288 0 -82 -190 -82 -190 -92 -3 c-51 -1
-93 1 -93 6 0 4 113 271 250 592 138 321 250 590 250 597 0 10 -39 13 -180 13
l-180 0 0 60 0 60 490 0 490 0 0 -60z m1315 -25 l0 -80 -230 -5 -230 -5 -3
-577 -2 -578 -90 0 -90 0 0 580 0 580 -230 0 -230 0 0 85 0 85 553 -2 552 -3
0 -80z m571 -185 c120 -149 224 -269 230 -268 6 2 61 64 121 138 60 74 157
195 216 268 l108 132 85 0 84 0 0 -665 0 -666 -92 3 -93 3 -2 509 c-1 280 -4
511 -6 513 -3 2 -96 -111 -208 -252 -112 -140 -209 -255 -216 -255 -7 0 -103
114 -214 253 -110 138 -205 254 -210 255 -5 2 -9 -205 -9 -512 l0 -516 -90 0
-90 0 0 665 0 665 84 0 83 0 219 -270z m2104 210 l0 -60 -175 0 c-96 0 -175
-3 -175 -6 0 -6 137 -317 370 -839 84 -187 154 -346 157 -353 4 -10 -16 -12
-92 -10 l-97 3 -86 193 -85 192 -287 0 -287 0 -83 -195 -83 -195 -94 0 c-51 0
-93 2 -93 5 0 2 62 150 139 327 185 431 371 868 371 874 0 2 -83 4 -185 4
l-185 0 0 60 0 60 485 0 485 0 0 -60z m-4947 -1662 c9 -5 17 -14 17 -19 0 -7
-7 -8 -17 -4 -69 28 -144 11 -162 -38 -16 -42 7 -74 86 -123 82 -51 113 -90
113 -144 0 -61 -53 -110 -119 -110 -41 0 -111 29 -111 46 0 17 1 17 36 -1 71
-37 164 -5 164 56 0 47 -16 67 -90 115 -85 55 -110 85 -110 135 0 85 106 133
193 87z m5044 -11 c104 -55 147 -196 91 -305 -67 -129 -258 -161 -371 -61
-143 125 -76 360 110 388 56 8 129 -1 170 -22z m-3987 8 c0 -12 -16 -15 -80
-15 l-80 0 0 -205 c0 -198 -1 -205 -20 -205 -19 0 -20 7 -20 205 l0 205 -80 0
c-64 0 -80 3 -80 15 0 13 27 15 180 15 153 0 180 -2 180 -15z m712 -154 c3
-165 4 -170 28 -196 41 -44 77 -58 142 -53 63 5 104 27 125 69 9 16 13 78 13
187 0 150 1 163 18 160 15 -3 17 -18 20 -127 4 -167 -8 -227 -52 -268 -42 -39
-105 -57 -169 -49 -67 7 -108 34 -134 86 -21 40 -23 58 -23 202 0 130 3 158
14 158 12 0 15 -32 18 -169z m1314 154 c96 -28 148 -101 148 -205 0 -71 -14
-107 -61 -154 -52 -53 -95 -66 -225 -66 l-118 0 0 220 0 220 103 0 c62 0 123
-6 153 -15z m894 -205 c0 -189 -2 -220 -15 -220 -13 0 -15 31 -15 220 0 189 2
220 15 220 13 0 15 -31 15 -220z"
    />
    <path
      d="M1807 8328 c-3 -7 -46 -113 -96 -235 -50 -122 -91 -224 -91 -227 0
-3 93 -6 206 -6 l205 0 -7 23 c-3 12 -14 38 -24 57 -10 19 -52 114 -95 210
-81 184 -89 199 -98 178z"
    />
    <path
      d="M5719 8108 c-51 -127 -95 -235 -97 -240 -2 -4 89 -8 202 -8 113 0
206 4 206 8 0 13 -198 454 -208 464 -4 4 -50 -95 -103 -224z"
    />
    <path
      d="M6179 6872 c-72 -37 -104 -92 -104 -179 0 -52 4 -68 30 -105 90 -129
291 -114 356 27 37 81 14 188 -52 237 -74 55 -150 62 -230 20z"
    />
    <path
      d="M4220 6694 l0 -197 99 5 c112 5 145 19 195 81 29 36 31 45 31 116 0
70 -3 81 -29 115 -43 57 -93 76 -203 76 l-93 0 0 -196z"
    />
  </g>
</svg>
